<svg xmlns="http://www.w3.org/2000/svg" xmlns:xlink="http://www.w3.org/1999/xlink" viewBox="0 0 298.4 171" width="1000" height="573.11"><style>.st0,.st1{fill:#fff}.st1{clip-path:url(#SVGID_2_)}.st2{clip-path:url(#SVGID_4_);fill:#274392}.st3,.st4{clip-path:url(#SVGID_6_);fill:#fff}.st4{clip-path:url(#SVGID_8_)}.st5,.st6{clip-path:url(#SVGID_10_);fill:#fff}.st6{clip-path:url(#SVGID_12_)}.st7{clip-path:url(#SVGID_14_);fill:#274392}.st8{clip-path:url(#SVGID_16_);fill:#e31f21}.st9{clip-path:url(#SVGID_18_);fill:#94989e}</style><path class="st0" d="M2.2 0h295v171H2.2z"/><path d="M26.9 158c-1 0-1.5-.1-2.1-.5-.9-.6-1.8-2.2-2.3-3.1-.9-1.6-1.9-3.3-2.9-4.7h-1.1v3.6c0 1.4.1 2.1.3 2.6.3.7.7 1 1.6 1.1v.7h-7v-.7c.7-.1 1-.2 1.3-.5s.5-.8.5-1.4c.1-.8.1-1.3.1-3.9v-4.5c0-3.3-.1-4.1-.3-4.8s-.7-1-1.7-1.1v-.7c.5.1 1.1 0 1.6 0 1.4 0 1.8 0 3.5-.1 1.4-.1 2.3-.1 2.9-.1 1.8 0 2.9.3 3.8.9 1 .7 1.7 2.1 1.7 3.5 0 2.2-1.4 4-3.9 4.9 1 1.3 1.8 2.6 2.7 4 .9 1.4 1.7 2.5 2.4 3.2.4.4.6.5 1.1.7v.7c-.7.1-1.4.2-2.2.2zm-6.8-16.8c-.5 0-1 .1-1.6.2v6.6c.3.1.8.1 1.2.1 2.2 0 3.7-1.4 3.7-3.4-.1-2-1.5-3.5-3.3-3.5zM35.7 141.6l-1-.6 2.2-3.2 2.5.5-3.7 3.3zm4.9 15.9c-.2.3-.4.4-1.6.4-.7 0-1.5 0-2.2-.1-1.1 0-2.1-.1-3.2-.1s-2.1 0-3.2.1v-.6c1-.1 1.4-.7 1.5-1.6.1-.7.1-1.4.1-2.5v-6.2c0-1.2-.1-1.7-.2-2.2-.2-.6-.6-.8-1.3-.9v-.6h10.3v3.5H40c-.2-1.7-.9-2.2-3.5-2.2h-1.7c0 .9-.1 1.1-.1 2.4v2.6h1c2.3 0 3-.3 3.1-1.5h.8V152.3h-.8c-.1-1.3-.7-1.6-2.9-1.6h-1.2v4.2c0 .9.2 1.2.7 1.4.3.1.8.1 1.5.1 2.4 0 3.2-.5 3.7-2.3l.9.2c-.3 1.5-.7 2.7-.9 3.2zM49.8 151.3h-.6l-.5-1.1c2.1-.1 3.2-1.1 3.2-2.8 0-1.8-1.2-3-2.9-3-.3 0-.5 0-.8.1v8c0 2.9 0 3.4.2 3.9.2.6.6.9 1.3.9v.6h-5.8v-.6c1-.1 1.4-.7 1.5-1.6.1-.7.1-1.1.1-3.2V147c0-1.2-.1-1.7-.2-2.2-.2-.6-.6-.8-1.3-.9v-.6h2.6c1.1 0 2.2-.1 3.4-.1 3.1 0 5 1.5 5 4.1-.1 2.2-2.2 4-5.2 4zM69.9 144.1c-.2.3-.4.8-.4 1.7s-.1 1.7-.1 3v3.5c0 1.5-.2 2.5-.9 3.4-1 1.5-2.7 2.2-4.9 2.2-1.4 0-2.4-.3-3.4-.9-1.5-1-2.1-2.3-2.1-4.6v-4.2c0-1.1.1-2.3-.1-3.4-.1-.8-.6-1.1-1.5-1.2v-.6h5.8v.6c-.7.1-1 .3-1.2.6s-.3.8-.3 1.7c0 1.4-.1 2.8-.1 4.1 0 3.8.1 4.5.8 5.3.5.6 1.4 1 2.5 1 1.5 0 2.9-.7 3.3-2.2.3-.9.3-1.6.3-4.1v-2.2c0-2.5-.1-3.3-.3-3.7-.2-.4-.6-.6-1.1-.7v-.6h4.6v.6c-.4.3-.7.4-.9.7zM83.4 156.8c-1 .8-2.2 1.1-4.4 1.1-1.2 0-2.4-.1-3.6-.1h-2.3v-.6c1-.1 1.4-.6 1.5-1.6.1-.7.1-1.1.1-3.2v-4.2c0-2 0-2.9-.2-3.5s-.6-.8-1.4-.9v-.6h3c1.3 0 3.2-.1 4.5-.1 2 0 3.9 1 3.9 3.3 0 1.7-1.1 2.8-3.1 3.4 2.3.5 3.6 1.8 3.6 4-.1 1.2-.6 2.2-1.6 3zm-4.8-12.6h-1.2c0 1.4-.1 3.9-.1 4.8h1c2.2 0 3.4-.9 3.4-2.5 0-1.4-1.2-2.3-3.1-2.3zm.1 6.2c-.4 0-.8 0-1.3.1v3c0 1.2 0 1.9.2 2.3.2.6.7.8 1.6.8 1.9 0 2.9-1 2.9-2.9 0-2-1.4-3.3-3.4-3.3zM97.3 157.5c-.2.3-.5.4-1.6.4H94c-1.4 0-2.6-.1-4.1-.1-1.1 0-1.9 0-2.6.1v-.6c.6 0 .8-.2 1.1-.4.4-.5.5-1 .5-2.6v-5.5c0-3 0-3.4-.2-4s-.6-.8-1.4-.9v-.6H93.5v.6c-1.1 0-1.6.6-1.7 1.7 0 .4-.1.7-.1 3.2v3.7c0 3.1 0 3.4.3 3.7.2.2.7.4 1.7.4 1.2 0 1.9-.1 2.4-.4.6-.3 1.1-1 1.3-1.9l.8.2c-.2 1-.6 2.6-.9 3zM105 157.8h-5.3v-.6c1-.1 1.4-.6 1.5-1.6.1-.7.1-1.1.1-3.2v-3.7-1.8c0-1.2 0-1.7-.2-2.2-.2-.6-.6-.8-1.4-.9v-.6h5.8v.6c-.9.1-1.4.7-1.5 1.7-.1.6-.1 1.3-.1 3.2v3.7c0 2.9 0 3.4.2 3.9.2.6.6.9 1.3.9v.6h-.4zM125.6 161.8c-1.7 0-3.5-.5-5.3-1.5-1-.6-2.4-1.5-3.4-2.3-.7.1-1 .1-1.7.1-4.4 0-7.4-2.9-7.4-7.3 0-4.7 3.2-7.9 7.9-7.9 4.5 0 7.6 2.9 7.6 7.3 0 3.1-1.6 5.9-4.1 7.1.8.4 1.6.8 2.4 1.3 2.2 1.4 3.8 1.9 5.2 1.9.9 0 1.7-.2 2.5-.6l.3.8c-1.2.7-2.5 1.1-4 1.1zm-10.4-17.6c-2.7 0-4.6 2.2-4.6 5.4 0 3.8 2.3 6.8 5.2 6.8 2.7 0 4.6-2.3 4.6-5.5-.1-3.6-2.3-6.7-5.2-6.7z"/><path d="M138.4 144.1c-.2.3-.4.8-.4 1.7s-.1 1.7-.1 3v3.5c0 1.5-.2 2.5-.9 3.4-1 1.5-2.7 2.2-4.9 2.2-1.4 0-2.4-.3-3.4-.9-1.5-1-2.1-2.3-2.1-4.6v-4.2c0-1.1.1-2.3-.1-3.4-.1-.8-.6-1.1-1.5-1.2v-.6h5.8v.6c-.7.1-1 .3-1.2.6s-.3.8-.3 1.7c0 1.4-.1 2.8-.1 4.1 0 3.8.1 4.5.8 5.3.5.6 1.4 1 2.5 1 1.5 0 2.9-.7 3.3-2.2.3-.9.3-1.6.3-4.1v-2.2c0-2.5-.1-3.3-.3-3.7s-.6-.6-1.1-.7v-.6h4.6v.6c-.3.3-.6.4-.9.7zM151.9 157.5c-.2.3-.4.4-1.6.4-.7 0-1.5 0-2.2-.1-1.1 0-2.1-.1-3.2-.1s-2.1 0-3.2.1v-.6c1-.1 1.4-.7 1.5-1.6.1-.7.1-1.4.1-2.5v-6.2c0-1.2-.1-1.7-.2-2.2-.2-.6-.6-.8-1.3-.9v-.6h10.3v3.5h-.8c-.2-1.7-.9-2.2-3.5-2.2h-1.7c0 .9-.1 1.1-.1 2.4v2.6h1c2.3 0 3-.3 3.1-1.5h.8V152.3h-.8c-.1-1.3-.7-1.6-2.9-1.6H146v4.2c0 .9.2 1.2.7 1.4.3.1.8.1 1.5.1 2.4 0 3.2-.5 3.7-2.3l.9.2c-.3 1.5-.6 2.7-.9 3.2zM172.3 144.2c0-1.9-1.1-2.7-4.2-2.7-.6 0-1.2 0-1.9.1-.1 1.8-.1 3.1-.1 6 .6 0 1 .1 1.4.1 2.5 0 3.2-.4 3.4-1.9h1c0 .7-.1 1.5-.1 2.3 0 1 .1 2 .1 3h-1c-.2-1.6-.8-1.9-3.6-1.9h-1.2v4.9c.1 1.5.2 2.7 1.9 2.9v.7h-7v-.7c1.2-.1 1.7-.8 1.8-2 .1-.8.1-1.3.1-3.9v-6.7c0-1.4-.1-2.1-.3-2.6-.2-.7-.7-1-1.6-1.1v-.7h12.3c-.1.5-.1 1.4-.1 2.5s0 1.2.1 1.8h-1v-.1zM187 158c-.8 0-1.3-.1-1.7-.4-.7-.5-1.5-1.8-1.9-2.6-.7-1.3-1.6-2.7-2.4-3.9H180.1v3c0 1.2 0 1.7.2 2.2.2.6.6.9 1.3.9v.6h-5.8v-.6c.6 0 .8-.2 1.1-.4.2-.3.4-.7.4-1.2.1-.7.1-1.1.1-3.2v-3.7c0-2.7-.1-3.3-.2-4-.2-.6-.6-.8-1.4-.9v-.6h1.3c1.1 0 1.5 0 2.9-.1 1.2 0 1.9-.1 2.4-.1 1.5 0 2.4.2 3.1.7.8.6 1.4 1.7 1.4 2.9 0 1.8-1.2 3.3-3.2 4 .8 1.1 1.5 2.1 2.3 3.3.7 1.1 1.4 2.1 2 2.6.3.3.5.4.9.6v.6c-.6.2-1.2.3-1.9.3zm-5.6-13.9c-.4 0-.8.1-1.3.2v5.5c.2 0 .7.1 1 .1 1.8 0 3-1.1 3-2.8-.1-1.8-1.2-3-2.7-3zM202.9 157.8h-5.3v-.6c.7 0 1.1-.4 1.1-1 0-.2-.1-.5-.3-1.2-.3-.8-.4-1.4-.7-2.1h-4.2l-.4 1.3c-.3 1-.5 1.7-.5 2.1 0 .6.3.9 1 1v.6h-4.4v-.6c.3 0 .4-.1.7-.3.4-.4.8-1.1 1.5-2.8l2.1-5.3c.6-1.4 1.4-3.7 2-5.6h1.5c.2.7.7 1.8 1 2.6l3.1 7.9c.5 1.3.9 2.1 1.2 2.6s.6.8 1.1.9v.6l-.5-.1zm-7.1-10.8c-.6 1.5-1.4 3.4-1.7 4.5h3.3l-1.6-4.5zM218.6 144.3c-.2.4-.3.8-.3 1.9-.1 2-.1 5.1-.1 6.5v3.4c0 .5.1 1.3.1 1.6h-1.5c-1.4-1.9-4.4-5.5-4.4-5.5-.4-.4-3.1-3.8-4.5-5.5v3c0 1.7 0 3.3.1 4.9 0 .9.1 1.4.4 1.8.2.4.5.6 1.2.6v.6H204.9v-.6c1.5 0 1.5-1.3 1.5-2.4V146.9c0-1.8-.1-2.3-.4-2.8-.2-.4-.5-.5-1.2-.5v-.6h3.8c.3.5.7.9 2.2 2.8 2.2 2.6 4.1 4.8 5.9 7.1v-4.8c0-2.2 0-2.8-.2-3.3-.2-.7-.6-1.1-1.4-1.2v-.6h4.6v.6c-.5 0-.8.2-1.1.7zM234 157.3c-1.4.6-2.7.8-4.4.8l-.2.9h.4c.8 0 1.4.6 1.4 1.3 0 1.2-.9 2-2.4 2-.4 0-.8-.1-1.3-.3l.3-.9c.3.1.5.2.8.2.6 0 1-.3 1-.9 0-.4-.2-.7-.6-.7-.2 0-.3.1-.5.2l-.5-.1.4-1.8c-1.9-.2-3.3-.8-4.5-2-1.4-1.4-2.1-3.3-2.1-5.5 0-4.8 3.1-7.6 8.1-7.6 1.5 0 3 .2 4.3.6v3.2h-.9c-.4-1.6-1.6-2.4-3.6-2.4-3.1 0-5 2.1-5 5.5 0 4 2.2 6.8 5.3 6.8 1.8 0 3.1-.9 3.6-2.7l.8.2c-.1.7-.3 2-.4 3.2zM249.3 157.8H244v-.6c.7 0 1.1-.4 1.1-1 0-.2-.1-.5-.3-1.2-.3-.8-.4-1.4-.7-2.1h-4.2l-.4 1.3c-.3 1-.5 1.7-.5 2.1 0 .6.3.9 1 1v.6h-4.4v-.6c.3 0 .4-.1.7-.3.4-.4.8-1.1 1.5-2.8l2.1-5.3c.6-1.4 1.4-3.7 2-5.6h1.5c.2.7.7 1.8 1 2.6l3.1 7.9c.5 1.3.9 2.1 1.2 2.6s.6.8 1.1.9v.6l-.5-.1zm-7.2-10.8c-.6 1.5-1.4 3.4-1.7 4.5h3.3l-1.6-4.5zM256.5 157.8h-5.3v-.6c1-.1 1.4-.6 1.5-1.6.1-.7.1-1.1.1-3.2v-3.7-1.8c0-1.2 0-1.7-.2-2.2-.2-.6-.6-.8-1.4-.9v-.6h5.8v.6c-.9.1-1.4.7-1.5 1.7-.1.6-.1 1.3-.1 3.2v3.7c0 2.9 0 3.4.2 3.9.2.6.6.9 1.3.9v.6h-.4zM263.4 158.1c-1.3 0-2.2-.2-3.7-.7-.1-.8-.2-2.1-.4-3.2l.8-.1c.5 1.8 1.7 2.7 3.4 2.7 1.6 0 2.6-.8 2.6-2 0-1-.7-1.7-1.7-2.3l-2.3-1.5c-1.6-1-2.5-2.1-2.5-4 0-2.5 1.9-4.1 4.8-4.1 1.4 0 2.6.3 3.6.8v3h-.8c-.3-1.6-1.3-2.5-2.8-2.5-1.4 0-2.4.9-2.4 2.1 0 1.1.7 1.8 1.9 2.5l1.9 1.2c1.8 1.2 2.8 2.3 2.8 4 0 2.4-2.1 4.1-5.2 4.1zM281.1 157.5c-.2.3-.4.4-1.6.4-.8 0-1.5 0-2.2-.1-1.1 0-2.1-.1-3.2-.1s-2.1 0-3.2.1v-.6c1-.1 1.4-.7 1.5-1.6.1-.7.1-1.4.1-2.5v-6.2c0-1.2-.1-1.7-.2-2.2-.2-.6-.6-.8-1.3-.9v-.6h10.3v3.5h-.8c-.2-1.7-.9-2.2-3.5-2.2h-1.7c0 .9-.1 1.1-.1 2.4v2.6h1c2.3 0 3-.3 3.1-1.5h.8V152.3h-.8c-.1-1.3-.7-1.6-2.9-1.6h-1.2v4.2c0 .9.2 1.2.7 1.4.3.1.8.1 1.5.1 2.4 0 3.2-.5 3.7-2.3l.9.2c-.3 1.5-.7 2.7-.9 3.2zM20.9 128c-.2.3-.5.3-1.3.3-1 0-2.1-.1-3.1-.1H11.4l.1-.5c.6-.1 1-.3 1.3-.7s.6-1 .9-2.2c.3-1.2.4-1.9.9-4.1l.3-1.7c.3-1.7.5-2.7.5-3.3 0-.9-.3-1.3-1.3-1.4l.1-.5H19.6l-.1.5c-.7 0-1 .2-1.3.6-.5.7-.8 1.6-1.6 5.7l-.3 1.4c-.3 1.8-.5 2.4-.6 3.2 0 .3-.1.5-.1.7 0 .8.4 1.1 1.8 1.1 2.4 0 3.3-.5 4.1-2.3l.6.2c-.5 1.7-1 2.8-1.2 3.1zM27.2 117.6c-.7 0-1.1-.4-1.1-1 0-.8.6-1.3 1.3-1.3.6 0 1 .4 1 1 .1.7-.4 1.3-1.2 1.3zm-2.3 10.9c-.4 0-.7-.2-.7-.6 0-.2.1-.5.2-1 .3-1.1.7-2.7.9-3.5.3-1.1.4-1.9.4-2.2s-.1-.4-.4-.4c-.2 0-.4.1-.8.2h-.2l-.1-.6c1.2-.5 2.3-.7 2.9-.7.3 0 .5.1.5.4s-.1.9-.5 2.4l-.3 1.3c-.5 2.1-.7 2.8-.7 3.2 0 .3.2.5.5.5.2 0 .6-.1 1.2-.3v.6c-1.1.4-2.3.7-2.9.7zM36.7 127.5c-.8.7-1.8 1-3.3 1-1.7 0-2.7-.3-2.7-.7 0-.2 0-.4.2-1.3l1.1-4.9c.4-1.6.6-2.8 1-4.6.2-1 .3-1.6.3-1.9s-.1-.4-.4-.4c-.2 0-.6.1-.9.2v-.6l.3-.1c1.2-.4 2.1-.6 2.6-.6.3 0 .5.1.5.4 0 .2-.1.8-.5 2.4l-.6 2.8c-.2.9-.3 1.3-.3 1.6 1.4-.8 2.5-1.2 3.6-1.2 1.3 0 2 .7 2 2-.2 2.1-1.3 4.6-2.9 5.9zm0-6.9c-.4 0-.9.2-1.5.5s-1.1.7-1.3 1c-.3.4-.5 1.1-.8 2.5-.3 1.3-.5 2.2-.5 2.5 0 .4.5.6 1.3.6.9 0 1.6-.4 2.2-1.2.9-1.2 1.5-3.2 1.5-4.6 0-.8-.3-1.3-.9-1.3zM44.1 124.9h-.6c-.1.4-.1.7-.1 1 0 1.1.4 1.7 1.1 1.7s1.5-.4 2.8-1.2l.2.7c-1.6 1-2.8 1.4-3.9 1.4-1.3 0-2.1-.8-2.1-2.2 0-3.5 2.4-6.6 5.2-6.6 1.3 0 2.1.6 2.1 1.7.1 2-2 3.5-4.7 3.5zm2.2-4.3c-1 0-2.1 1.4-2.7 3.5h.2c2 0 3.5-1.1 3.5-2.4 0-.7-.4-1.1-1-1.1zM57.6 122.5l-.7-.1c0-.3.1-.6.1-.8 0-.4-.3-.7-.9-.7-.3 0-.6.2-.9.5-.8.9-1.1 2.4-1.6 4.8l-.4 2.1c-.8 0-1 .1-1.9.2.2-.8.4-1.5.5-2.2l.5-2c.3-1.4.5-2.2.5-2.6 0-.5-.1-.8-.4-.8-.1 0-.3 0-.5.1l-.5.2-.1-.6c1-.4 2.2-.8 2.8-.8.2 0 .3.1.4.3.1.3.1.6.1.9 1-.8 1.8-1.2 2.4-1.2.4 0 .9.2 1.4.6-.4.6-.6 1.3-.8 2.1zM64.9 121h-1.8l-.9 4.4c-.2 1.1-.3 1.5-.3 1.6 0 .3.1.5.4.5.1 0 .5-.1 1-.2l.2-.1.1.6c-1.1.4-2.3.8-2.9.8-.5 0-.7-.2-.7-.6 0-.4.1-.9.3-1.6.2-.8.3-1.4.5-2.2l.7-3.2h-1.1l.2-.7c1.5-.3 2-1.4 2.4-2.7l1-.2-.5 2.5h1.8l-.4 1.1zM71.5 118.4l-.7-.6 2.6-3 1.9.5-3.8 3.1zm-2.4 6.5h-.6c-.1.4-.1.7-.1 1 0 1.1.4 1.7 1.1 1.7s1.5-.4 2.8-1.2l.2.7c-1.6 1-2.8 1.4-3.9 1.4-1.3 0-2.1-.8-2.1-2.2 0-3.5 2.4-6.6 5.2-6.6 1.4 0 2.1.6 2.1 1.7.1 2-2 3.5-4.7 3.5zm2.2-4.3c-1 0-2.1 1.4-2.7 3.5h.2c2 0 3.5-1.1 3.5-2.4 0-.7-.4-1.1-1-1.1zM108.3 112.6l-.7-.6 2.6-3 2 .5-3.9 3.1zm4.1 4.5h-.6v-.5c0-1.2-.8-1.6-2.9-1.6-.7 0-1.4 0-2.1.1-.5 1.8-.8 3.3-1.1 5.2h.8c1.4 0 2 0 2.4-.1.8-.2 1.3-.6 1.5-1.5h.6c-.3 1.3-.7 3.1-.8 4.2h-.6v-.4c0-.9-.6-1.2-2.3-1.2h-1.8c-.1.5 0 .1-.5 2.5-.2 1.2-.3 2-.3 2.3 0 .7.4.9 1.8.9 2.7 0 3.5-.4 4.4-2.3l.5.2c-.5 1.4-1 2.6-1.3 2.9-.2.2-.5.3-1.4.3h-8.3l.1-.5c.6-.1 1-.3 1.3-.7.3-.4.6-1 .9-2.2s.4-1.7.9-4.1l.3-1.7c.3-1.7.5-2.7.5-3.3 0-.9-.3-1.3-1.3-1.4l.1-.5h9.8c-.3 1.3-.5 2.4-.6 3.4zM122.9 121h-1.5c.3.5.3.8.3 1.3 0 2-1.7 3.5-3.8 3.5-.4 0-.7 0-1.2-.2-.5.3-.7.5-.7.7s.2.3 1.2.6l1.7.5c1.7.5 2.6 1 2.6 2.3 0 2.3-2.2 4.1-5.1 4.1-2.4 0-3.8-1.1-3.8-2.9 0-1.7 1.1-2.5 2.8-2.9-1.1-.4-1.3-.6-1.3-.9 0-.5.6-1 1.9-1.8-.7-.5-1-1.1-1-2 0-2 1.6-3.6 3.8-3.6.6 0 1 .1 1.4.2h2.8l-.1 1.1zm-4-.5c-1.2 0-2.1 1.2-2.1 2.7 0 1 .6 1.7 1.4 1.7 1.1 0 2.1-1.2 2.1-2.6-.1-1.1-.6-1.8-1.4-1.8zm.3 8.7c-.7-.3-1.6-.6-2.5-.8-1.5.4-2.5 1.5-2.5 2.7s1 1.9 2.5 1.9c1.9 0 3.6-1.3 3.6-2.6 0-.5-.4-.9-1.1-1.2zM131 128.5c-.4 0-.5-.2-.7-1.3-1.6.9-2.7 1.3-3.9 1.3-1.3 0-2-.7-2-1.8s.6-2.7 1.4-4.1c1.2-1.8 2.6-2.9 4.8-2.9 1 0 1.8.2 2.8.4l-.1.3c-.8 2.5-1.3 5.2-1.3 6.1 0 .6.1.9.4.9.2 0 .6-.1 1.2-.3l.1.7c-1.3.4-2.3.7-2.7.7zm-1-7.9c-.9 0-1.7.6-2.4 1.8-.8 1.3-1.4 3-1.4 4.2 0 .7.3 1 .9 1 .8 0 2.2-.7 2.7-1.2.3-.3.5-.7.7-1.5.3-1.3.7-2.5.9-3.9-.6-.3-1-.4-1.4-.4zM140.5 115.9c-.7 2.9-1.4 6-2.1 9-.2 1-.3 1.6-.3 2 0 .3.2.5.5.5.2 0 .6-.1 1.2-.3v.6c-1.1.4-2.4.8-3 .8-.4 0-.6-.2-.6-.6 0-.3.1-.7.4-2 .7-2.8 1.4-5.9 2-8.6.3-1.2.4-1.9.4-2.1 0-.3-.1-.4-.4-.4-.2 0-.6.1-.9.2v-.6c1.1-.4 2.3-.7 2.9-.7.3 0 .5.1.5.4-.2.2-.3.7-.6 1.8zM145.8 117.6c-.7 0-1.1-.4-1.1-1 0-.8.6-1.3 1.3-1.3.6 0 1 .4 1 1 .1.7-.4 1.3-1.2 1.3zm-2.3 10.9c-.4 0-.7-.2-.7-.6 0-.2.1-.5.2-1 .3-1.1.7-2.7.9-3.5.3-1.1.4-1.9.4-2.2s-.1-.4-.4-.4c-.2 0-.4.1-.8.2h-.2l-.1-.6c1.2-.5 2.3-.7 2.9-.7.3 0 .4.1.4.4s-.1.9-.5 2.4l-.3 1.3c-.5 2.1-.7 2.8-.7 3.2 0 .3.2.5.5.5.2 0 .6-.1 1.2-.3v.6c-1 .4-2.2.7-2.8.7zM154.4 121h-1.8l-.9 4.4c-.2 1.1-.3 1.5-.3 1.6 0 .3.1.5.4.5.2 0 .5-.1 1-.2l.2-.1.1.6c-1.1.4-2.3.8-2.9.8-.4 0-.7-.2-.7-.6 0-.4.1-.9.3-1.6.2-.8.3-1.4.5-2.2l.7-3.2h-1.1l.2-.7c1.5-.3 2-1.4 2.4-2.7l1-.2-.5 2.5h1.8l-.4 1.1zM160.9 118.4l-.7-.6 2.6-3 1.9.5-3.8 3.1zm-2.3 6.5h-.6c-.1.4-.1.7-.1 1 0 1.1.4 1.7 1.1 1.7s1.5-.4 2.8-1.2l.2.7c-1.6 1-2.8 1.4-3.9 1.4-1.3 0-2.1-.8-2.1-2.2 0-3.5 2.4-6.6 5.2-6.6 1.3 0 2.1.6 2.1 1.7.1 2-2 3.5-4.7 3.5zm2.2-4.3c-1 0-2.1 1.4-2.7 3.5h.2c2 0 3.5-1.1 3.5-2.4 0-.7-.5-1.1-1-1.1zM201.5 117.1h-.6v-.5c0-.4-.2-.8-.4-1-.4-.4-1.2-.5-2.8-.5h-1.6c-.4 1.8-.7 3.5-1.1 5.3h1.2c2.4 0 2.9-.2 3.3-1.6h.6c-.3 1.4-.6 2.8-.8 4.2h-.6v-.4c0-.4-.2-.7-.4-.9-.4-.3-.8-.3-2.1-.3h-1.4l-.3 1.4c-.4 2.1-.6 3-.6 3.6 0 .9.4 1.3 1.3 1.4l-.1.5H189.8l.1-.5c.6-.1 1-.3 1.3-.7.3-.4.6-1 .9-2.2.3-1.2.4-1.9.9-4.1l.3-1.7c.3-1.7.5-2.7.5-3.3 0-.9-.3-1.3-1.3-1.4l.1-.5h9.5c-.2 1.1-.4 2.2-.6 3.2zM208.8 122.5l-.7-.1c0-.3.1-.6.1-.8 0-.4-.3-.7-.9-.7-.3 0-.6.2-.9.5-.8.9-1.1 2.4-1.6 4.8l-.4 2.1c-.8 0-1 .1-1.9.2.2-.8.4-1.5.5-2.2l.5-2c.3-1.4.5-2.2.5-2.6 0-.5-.1-.8-.4-.8-.1 0-.3 0-.5.1l-.5.2-.1-.6c1.1-.4 2.3-.8 2.8-.8.2 0 .3.1.4.3.1.3.1.6.1.9 1-.8 1.8-1.2 2.4-1.2.4 0 .9.2 1.4.6-.3.6-.6 1.3-.8 2.1zM217.3 128.5c-.4 0-.5-.2-.7-1.3-1.6.9-2.7 1.3-3.9 1.3-1.3 0-2-.7-2-1.8s.6-2.7 1.4-4.1c1.2-1.8 2.6-2.9 4.8-2.9 1 0 1.8.2 2.8.4l-.1.3c-.8 2.5-1.3 5.2-1.3 6.1 0 .6.1.9.4.9.2 0 .6-.1 1.2-.3l.1.7c-1.3.4-2.3.7-2.7.7zm-1-7.9c-.9 0-1.7.6-2.4 1.8-.8 1.3-1.4 3-1.4 4.2 0 .7.3 1 .9 1 .8 0 2.2-.7 2.7-1.2.3-.3.5-.7.7-1.5.3-1.3.7-2.5.9-3.9-.6-.3-1-.4-1.4-.4zM227.5 121h-1.8l-.9 4.4c-.2 1.1-.3 1.5-.3 1.6 0 .3.2.5.4.5s.5-.1 1-.2l.2-.1.1.6c-1.1.4-2.3.8-2.9.8-.4 0-.7-.2-.7-.6 0-.4.1-.9.3-1.6.2-.8.3-1.4.5-2.2l.7-3.2H223l.2-.7c1.5-.3 1.9-1.4 2.4-2.7l1-.2-.5 2.5h1.8l-.4 1.1zM231.7 124.9h-.6c-.1.4-.1.7-.1 1 0 1.1.4 1.7 1.1 1.7.7 0 1.5-.4 2.8-1.2l.2.7c-1.6 1-2.8 1.4-3.9 1.4-1.3 0-2.1-.8-2.1-2.2 0-3.5 2.4-6.6 5.2-6.6 1.3 0 2.1.6 2.1 1.7.2 2-1.9 3.5-4.7 3.5zm2.2-4.3c-1 0-2.1 1.4-2.7 3.5h.2c2 0 3.5-1.1 3.5-2.4.1-.7-.4-1.1-1-1.1zM245.3 122.5l-.7-.1c0-.3.1-.6.1-.8 0-.4-.3-.7-.9-.7-.3 0-.6.2-.9.5-.8.9-1.1 2.4-1.6 4.8l-.4 2.1c-.8 0-1 .1-1.9.2.2-.8.4-1.5.5-2.2l.5-2c.3-1.4.5-2.2.5-2.6 0-.5-.1-.8-.4-.8-.1 0-.3 0-.5.1l-.5.2-.1-.6c1.1-.4 2.2-.8 2.8-.8.2 0 .3.1.4.3.1.3.1.6.1.9 1-.8 1.8-1.2 2.4-1.2.4 0 .9.2 1.4.6-.4.6-.7 1.3-.8 2.1zM253.8 128.5c-.4 0-.7-.3-.7-.6s.1-.7.3-1.8l.2-.9c.6-2.7.8-3.6.8-3.9s-.2-.5-.5-.5c-.4 0-1 .2-1.6.6-.7.4-1.2.8-1.5 1.2-.2.3-.3.9-.6 2-.3 1.6-.6 2.6-.7 3.6-.8.1-1.1.1-1.9.2.4-1.6.8-2.9 1.1-4.4s.4-2.1.4-2.5c0-.5-.1-.7-.5-.7-.2 0-.5.1-1.1.3v-.6c1-.4 2.1-.7 2.7-.7.5 0 .6.3.6 1.3v.2c1.6-.9 3.3-1.5 4.5-1.5.7 0 1 .2 1 .6s-.1 1.2-.6 2.9c-.3 1-.5 2-.6 2.5-.1.6-.2 1-.2 1.2 0 .3.2.5.5.5.2 0 .6-.1 1.1-.3l.1.6c-1 .4-2.3.7-2.8.7zM262.8 117.6c-.7 0-1.1-.4-1.1-1 0-.8.6-1.3 1.3-1.3.6 0 1.1.4 1.1 1 0 .7-.5 1.3-1.3 1.3zm-2.3 10.9c-.4 0-.7-.2-.7-.6 0-.2.1-.5.2-1 .3-1.1.7-2.7.9-3.5.3-1.1.4-1.9.4-2.2s-.1-.4-.4-.4c-.2 0-.4.1-.8.2h-.2l-.1-.6c1.2-.5 2.3-.7 2.9-.7.3 0 .4.1.4.4s-.1.9-.5 2.4l-.3 1.3c-.5 2.1-.7 2.8-.7 3.2 0 .3.2.5.5.5.2 0 .6-.1 1.2-.3v.6c-1 .4-2.2.7-2.8.7zM271.3 121h-1.8l-.9 4.4c-.2 1.1-.3 1.5-.3 1.6 0 .3.2.5.4.5s.5-.1 1-.2l.2-.1.1.6c-1.1.4-2.3.8-2.9.8-.5 0-.7-.2-.7-.6 0-.4.1-.9.3-1.6.2-.8.3-1.4.5-2.2l.7-3.2h-1.1l.2-.7c1.5-.3 1.9-1.4 2.4-2.7l1-.2-.5 2.5h1.8l-.4 1.1zM277.9 118.4l-.7-.6 2.6-3 1.9.5-3.8 3.1zm-2.4 6.5h-.6c-.1.4-.1.7-.1 1 0 1.1.4 1.7 1.1 1.7s1.5-.4 2.8-1.2l.2.7c-1.6 1-2.8 1.4-3.9 1.4-1.3 0-2.1-.8-2.1-2.2 0-3.5 2.4-6.6 5.2-6.6 1.4 0 2.1.6 2.1 1.7.1 2-2 3.5-4.7 3.5zm2.2-4.3c-1 0-2.1 1.4-2.7 3.5h.2c2 0 3.5-1.1 3.5-2.4 0-.7-.4-1.1-1-1.1z"/><circle cx="177.3" cy="121.9" r="2.6"/><circle cx="87.8" cy="121.9" r="2.6"/><g><defs><path id="SVGID_1_" d="M12.8 11.7h267.9v89.9H12.8z"/></defs><clipPath id="SVGID_2_"><use xlink:href="#SVGID_1_" overflow="visible"/></clipPath><path class="st1" d="M10.3 7.6h273.5V104H10.3z"/><defs><path id="SVGID_3_" d="M12.8 11.7h267.9v89.9H12.8z"/></defs><clipPath id="SVGID_4_"><use xlink:href="#SVGID_3_" overflow="visible"/></clipPath><path class="st2" d="M92.8 67.6c-2.4.7-4.9.8-7.2 2 5.3-.2 10.6.6 15.7 2.2 1.8.6 3.5 1.4 5.1 2.5.8.6 1.2 1.2 2 1.6 1 .6 2.5.6 3.5.2h1c3.1-.8 6.3-1.6 8.4-3.9 0 .2.2.2.4.2-.6 1.6-.6 3.5-1.8 4.9 0 .2-.2.6.2.8h.4c-.2 0-.4 0-.4.2 0 .4.6 0 .8.4-1 .2-2 .4-2.7 1.2 0 .2.4.2.6.2-.4.4-1 .2-1.2.6 0 0 .2.2.4.2-.2 0-.4 0-.4.2v.6c-.6 0-.8.4-1.2.6.8.6 1.4 0 2.2 0-2.2.8-4.1 2-6.3 2.7-.4 0 0 .6-.4.6.6.4 1-.2 1.6-.2-2.9 1.6-5.7 3.1-8.8 4.9 0 0-.4.4-.4.8h-.8c-.4.2-.2.8-.6 1.2 1 .6 2.2-.8 2.9 0 .2 0-.4.2-.8.2-.2 0-.2.4-.4.4h-.6c-.4.4-.8.6-.8 1.2-.4 0-.8 0-1 .4 4.5-.6 9.2-.2 13.5-2.5 3.3-1.6 6.3-3.9 9-6.7 0 0 .2.2.2.4-.6 2-1.8 3.5-3.5 4.7-1.2.6-2 1.6-3.1 2l-1.8 1.2c-7.6 2.7-16.6 1.4-23.1 6.5 0-.2-.2-.2-.4-.2-.4.4-1 .6-1.2 1 0 .4.6.2.8.2 1.2-.8 2.5-1.4 3.9-1.8-1.6.8-3.3 2-4.9 2.5-3.5.6-6.7.4-10.2 0 2-1.2 4.1-2.7 6.3-3.9-.6-.4-1.2-.4-1.8-.4-1 .2-2.2-.4-3.3 0-3.1 1.4-7.2 1-8.8 4.3-20.4.4-41.1 0-61.6 0 .4-22.3 0-44.4.6-66.7.2-8-.2-15.9-.2-23.9 5.5-1 11-.4 16.6-.2 35.4 0 70.6-.2 106 0-2.5 1.2-5.3 2.2-7.2 4.5-1.6 2-3.3 4.1-3.9 6.5-2.7 1.6-4.3 4.1-5.7 6.5-1.8 3.5-4.5 6.5-4.1 10.4.4 3.3 1.2 6.3 1.8 9.8.2 1.2.4 2.2.8 3.5.4 1.2 0 2.7.6 3.7.4.6.2 1.4 1 1.8v.8c.2.2.2.4.6.4v.8c1.6 2 3.7 3.9 4.7 6.1.4 1.2-2 .6-3.1.2-2-1-3.3-2.7-4.9-4.1 0 0-.2.2-.2.4.8 1.4 3.9 3.3 2.2 4.3-.8.4-1.8-.6-2.7.2-.2.4 0 .8 0 1.2-1.2-.8-2.5-.4-3.7-.8-.8-.2-1-1.8-2-1.8-2.7-.6-5.1-1.2-7.8-1.4-3.7-.4-7.2-1-10.8-.4-3.3.2-5.7 2.7-7.8 5.1v.6c1.4.2 2-1 3.3-1.4 2-.4 3.9-1.2 5.9-1.6 3.1-.6 5.9-1.4 8.8-1.2.6 0 1.4-.2 2 0-3.5.2-6.8 1.5-10.2 2.5z"/><defs><path id="SVGID_5_" d="M12.8 11.7h267.9v89.9H12.8z"/></defs><clipPath id="SVGID_6_"><use xlink:href="#SVGID_5_" overflow="visible"/></clipPath><path class="st3" d="M81.3 77.4c-.6.2-1.2.6-1 1 .6.8 1.8-.2 2.9-.2-1.2.4-2.7.2-3.7 1.2.8.6 1.6.2 2.5.2 0 .4.4.4.6.6-1 .4-1.8 1.2-2 1.8-.4 1-1.4 1.4-2 2.2v.6c-2 1.8-4.3 3.1-5.9 5.3.2 0 .2.2.2.4-.4.6-1.2.8-1.4 1.4 0 .2 0 .4.2.4 2.5-.8 4.3-2.7 6.5-3.5 1.6-.4 2.9-1.4 4.3-1.8 1-.2 2.2-.6 3.3-.8 0 .2 0 .4.2.4h1.6c-.2.4-1 .2-.8.4.6.6 1.8.4 2.7 0 .6-.4 1.2-.4 2-.4.2 0 .2-.4.2-.6.6.2 1 .2 1.6.2 4.9-1 9.6-2 14.1-4.3-5.3-4.1-12.1-5.5-18.4-7.4.6 0 1.2.6 1.8 0-1-.8-2.2-.4-3.3-1 .2 0 .6.2.8-.2-1.6-.8-3.3-.8-4.9-1.2 1-.2 1.6-1 1.6-2 0-.2-.4-.2-.6-.2-2.5 1.2-4.1 3.5-5.1 6.1 1.4.8 3.1.2 4.5.4-.7.8-1.7.8-2.5 1z"/><g><defs><path id="SVGID_7_" d="M12.8 11.7h267.9v89.9H12.8z"/></defs><clipPath id="SVGID_8_"><use xlink:href="#SVGID_7_" overflow="visible"/></clipPath><path class="st4" d="M72.9 69.4c-2.1 2.2-4.3 4.3-6.9 5.7-1.8 3.7-3.9 6.9-6.5 10.4 0 .2.2.4.2.4 4.9-5.5 9.4-10.2 15.7-14.1.4-.2-.6.6.2.4 2.7-.6 3.5-3.3 4.7-5.3 1.6-2.7 4.5-3.7 6.5-5.9 0 .2 0 .4-.2.6.2.2.4.2.6.2.8-.6 1.8-.4 2.5-1.2-1.6-.6-3.7-.8-5.3-.2-4.3 2.1-8 5.3-11.5 9z"/></g><g><defs><path id="SVGID_9_" d="M12.8 11.7h267.9v89.9H12.8z"/></defs><clipPath id="SVGID_10_"><use xlink:href="#SVGID_9_" overflow="visible"/></clipPath><path class="st5" d="M76 73.3c.2-.4.4-.4.6-.8 0-.2 0-.4-.2-.4-.8.2-1.4 1-1.6 1.8 0 .2.2.2.4.2.4-.2.6-.4.8-.8z"/></g><g><defs><path id="SVGID_11_" d="M12.8 11.7h267.9v89.9H12.8z"/></defs><clipPath id="SVGID_12_"><use xlink:href="#SVGID_11_" overflow="visible"/></clipPath><path class="st6" d="M92.3 88.8c-.8.4-2.2.4-2.5 1.4-.2.4.6.2 1 .2 1.4-.6 3.1 0 4.3-1.2-.4-.4-1-.2-1.4-.8-.3-.2-.9.2-1.4.4z"/></g><g><defs><path id="SVGID_13_" d="M12.8 11.7h267.9v89.9H12.8z"/></defs><clipPath id="SVGID_14_"><use xlink:href="#SVGID_13_" overflow="visible"/></clipPath><path class="st7" d="M114.6 99.9c1.3-.3 2.5-1 3.7-1.4v.4c3.1-1.2 5.3-3.9 8.4-4.9.2 0 .6.4 1 .2 1.8-1.6 3.9-3.5 6.5-3.1 0 .2 0 .4.2.4s.4 0 .4-.2c-.8.6-1.6 1.2-2.5 1.8-.2.2 0 .4.2.4 1-.4 1.6-1.2 2.7-1.6-.2.2-.2.6-.4.8-3.9 2.9-6.7 6.1-9.8 9.6h-6.3c0-.2 0-.4-.2-.4-7.2.6-14.1.4-21.3.4 4.1-.6 8.2-1.8 12.3-2.2 1.6 0 3.3.2 5.1-.2z"/></g><g><defs><path id="SVGID_15_" d="M12.8 11.7h267.9v89.9H12.8z"/></defs><clipPath id="SVGID_16_"><use xlink:href="#SVGID_15_" overflow="visible"/></clipPath><path class="st8" d="M195.2 89.5c.5-1.5 1-3.1.2-4.5-1.2-1.8 1.2-2.5 2-3.7.6-1-.4-1.6-.6-2.7-.2-.4-1-.2-1.4-.8 1.4-.6 3.7-1.8 2.7-3.7-.6-1-1.6-2.7-.4-3.7 1.4-.8 3.7-.6 4.3-2 1-2.5-1.2-4.5-2.5-6.5-.6-1.2-1.4-2-2.2-3.3-.8-1.4-1.8-2.7-2.2-4.3-.6-1.6.2-3.1.2-4.7.2-3.1-.6-6.1-1.4-9.2-.6-1.4-.8-3.1-1.4-4.5-.2-.8-.4-1.6-1-2.5-.2-.4-.2-1 0-1.4.8-.6 1.6-1.2 2.5-2 .6-1 .2-2.5-.8-3.1-1.4-.6-1.2 1.4-2.2 1.8h-.6c-.2-.6.2-.8.6-1.2 0-.2 0-.6-.2-.6-.8 0-1.6-.2-1.8-.6-2-2.9-4.9-4.3-8-5.5.8.2 1.6.4 2.5.4 1.4.2 3.1.2 4.3-.4 1-.4 1.2-2 1.6-3.1.4-.8-.2-2-.6-2.7-1-1.6-2.7-2.7-4.3-3.5h97c.2 30.2-.2 60.6-.4 90.8-38.2.6-76.5 0-114.8 0 1.2-4.1 3.5-8 7.2-10.6.8-.4 1.8-.6 2.9-.8 3.5 0 6.9 1 10.4 1.4.4 0 .8.2 1.2.4 1.2.2 2.7.2 3.9-.2 1.1-.4 2.7-1.2 3.3-3z"/></g><g><defs><path id="SVGID_17_" d="M12.8 11.7h267.9v89.9H12.8z"/></defs><clipPath id="SVGID_18_"><use xlink:href="#SVGID_17_" overflow="visible"/></clipPath><path class="st9" d="M187.5 49.2c-1.2-.3-2.2 0-3.5 0-1.6.4-3.1.6-4.5 1.2 1.2-.8 2.5-1.6 3.9-2 1-.2 2-.8 3.1-.8 1.2-.2 2.5-.6 3.5-.2 1 .4 2.7.4 2.9 1 .4 1.2-.6 2.5-1.8 3.3-.2.4.6.6.6 1-.2.4-.8.6-1.2.6-.4.2-.8.8-1.2 1.2.4 0 0 .6.4.6-.8 1 .4 3.1-.8 3.5-1.4.4-3.1.4-4.7 0 .8-.2 1.8.2 2.5-.6v-.8c0-.2-.2-.2-.4-.2-.2.2-.4.2-.4.2 0-.4-.4-.8-.6-.8-1.2.2-2.2-.4-3.1-1.2.6-.2 1.2-.4 1.8-.2.6 0 .4-1 1-1.4h.6c1.2-1.6 3.7-2 4.1-3.7-.2-.5-1.4-.5-2.2-.7z"/></g></g></svg>